name C:\Users\u0101727\Documents\MyRepositories\upper-imu-dc\Results\main_tracking\Case_14\kinematics.mot
datacolumns 10
datarows 18
range 6.30000000 6.47000000
endheader 
time	clav_prot	clav_elev	scapula_abduction	scapula_elevation	scapula_upward_rot	scapula_winging	plane_elv	shoulder_elv	axial_rot	
          6.30000000	        -41.77143713	          9.37830382	         -2.86245193	         -2.17766034	         73.82103185	        -11.70294292	         26.72147185	         89.12699596	         -1.04621441	
          6.31000000	        -41.77146918	          9.36205991	         -2.72758406	         -2.17778672	         73.98379999	        -11.68270318	         26.95373797	         89.15745139	         -1.09304463	
          6.32000000	        -41.77088813	          9.35030415	         -2.58968559	         -2.17439125	         74.15069721	        -11.66261687	         27.18712232	         89.18093032	         -1.13415554	
          6.33000000	        -41.76866919	          9.34075613	         -2.44579054	         -2.16886779	         74.32246298	        -11.64141974	         27.41952566	         89.19844519	         -1.16875975	
          6.34000000	        -41.76413367	          9.33108771	         -2.29408719	         -2.16271860	         74.49911264	        -11.61810448	         27.64964369	         89.21126105	         -1.19625967	
          6.35000000	        -41.75720570	          9.31940288	         -2.13449367	         -2.15725531	         74.67992739	        -11.59219835	         27.87721499	         89.22063346	         -1.21638768	
          6.36000000	        -41.74852924	          9.30460671	         -1.96882416	         -2.15335093	         74.86362281	        -11.56391193	         28.10297359	         89.22756060	         -1.22935303	
          6.37000000	        -41.73939265	          9.28655646	         -1.80047068	         -2.15131332	         75.04863985	        -11.53410588	         28.32831221	         89.23264263	         -1.23597244	
          6.38000000	        -41.73145849	          9.26592802	         -1.63364925	         -2.15093077	         75.23346885	        -11.50406717	         28.55475114	         89.23611324	         -1.23774457	
          6.39000000	        -41.72637351	          9.24382143	         -1.47241155	         -2.15168575	         75.41692181	        -11.47515390	         28.78338319	         89.23802480	         -1.23682621	
          6.40000000	        -41.72539481	          9.22123741	         -1.31973863	         -2.15306417	         75.59829211	        -11.44842812	         29.01448751	         89.23849064	         -1.23589753	
          6.41000000	        -41.72916764	          9.19863536	         -1.17702522	         -2.15483191	         75.77737629	        -11.42441065	         29.24743663	         89.23786378	         -1.23792589	
          6.42000000	        -41.73771851	          9.17576466	         -1.04410062	         -2.15715354	         75.95437601	        -11.40304211	         29.48088437	         89.23677491	         -1.24586538	
          6.43000000	        -41.75063511	          9.15183353	         -0.91972244	         -2.16050507	         76.12972034	        -11.38384615	         29.71312311	         89.23603687	         -1.26234633	
          6.44000000	        -41.76734106	          9.12592109	         -0.80231771	         -2.16543287	         76.30386151	        -11.36621365	         29.94246885	         89.23648220	         -1.28941276	
          6.45000000	        -41.78735556	          9.09743389	         -0.69068260	         -2.17227977	         76.47710336	        -11.34968807	         30.16755365	         89.23881066	         -1.32835295	
          6.46000000	        -41.81044422	          9.06640088	         -0.58438921	         -2.18100584	         76.64950935	        -11.33414031	         30.38744881	         89.24350610	         -1.37964304	
          6.47000000	        -41.83660894	          9.03348715	         -0.48377402	         -2.19117973	         76.82089661	        -11.31977067	         30.60160386	         89.25085997	         -1.44299519	
